<svg xmlns="http://www.w3.org/2000/svg" aria-hidden="true" style="position:absolute;width:0;height:0;overflow:hidden">
  <defs>
    <symbol id="icon-chevron-down" viewBox="0 0 32 32">
      <path fill="none" stroke="#fbfbfb" stroke-linecap="round" stroke-linejoin="round" stroke-width="3.2" d="m8 12 8 8 8-8" style="stroke:var(--color1, #fbfbfb)"/>
    </symbol>
    <symbol id="icon-arrow" viewBox="0 0 32 32">
      <path fill="#fbfbfb" d="M27.243 1.722A2 2 0 0 0 24.984.02L7.159 2.525a2 2 0 1 0 .557 3.961L23.56 4.259l2.227 15.844a2 2 0 1 0 3.961-.557L27.243 1.721zM5.194 31.955 26.859 3.204 23.664.797 1.999 29.548l3.195 2.407z" style="fill:var(--color1, #fbfbfb)"/>
    </symbol>
    <symbol id="icon-chevron-up" viewBox="0 0 32 32">
      <path fill="none" stroke="#fbfbfb" stroke-linecap="round" stroke-linejoin="round" stroke-width="3.2" d="m8 20 8-8 8 8" style="stroke:var(--color1, #fbfbfb)"/>
    </symbol>
    <symbol id="icon-clock" viewBox="0 0 32 32">
      <path stroke-linecap="round" stroke-linejoin="round" stroke-width="2.4" d="M16 29.333c7.364 0 13.333-5.969 13.333-13.333S23.363 2.667 16 2.667C8.636 2.667 2.667 8.637 2.667 16S8.637 29.333 16 29.333z"/>
      <path stroke-linecap="round" stroke-linejoin="round" stroke-width="2.4" d="M16 8v8l5.333 2.667"/>
    </symbol>
    <symbol id="icon-eye" viewBox="0 0 32 32">
      <path stroke-linecap="round" stroke-linejoin="round" stroke-width="3.2" d="M1.333 16S6.666 5.333 16 5.333 30.667 16 30.667 16 25.334 26.667 16 26.667C6.667 26.667 1.333 16 1.333 16z"/>
      <path stroke-linecap="round" stroke-linejoin="round" stroke-width="3.2" d="M16 20a4 4 0 1 0 0-8 4 4 0 0 0 0 8z"/>
    </symbol>
    <symbol id="icon-eye-off" viewBox="0 0 32 32">
      <path stroke-linecap="round" stroke-linejoin="round" stroke-width="3.2" d="M23.92 23.92A13.429 13.429 0 0 1 16 26.667C6.667 26.667 1.333 16 1.333 16A24.605 24.605 0 0 1 8.08 8.08m5.12-2.427a12.161 12.161 0 0 1 2.8-.32C25.333 5.333 30.667 16 30.667 16a24.646 24.646 0 0 1-2.88 4.253m-8.96-1.426a4.01 4.01 0 0 1-2.855 1.273 3.996 3.996 0 0 1-3.779-2.501 3.995 3.995 0 0 1 .056-3.127c.219-.491.534-.932.927-1.298M1.333 1.333l29.333 29.333"/>
    </symbol>
    <symbol id="icon-green-circle" viewBox="0 0 32 32">
      <path fill="#54be96" d="M32 16c0 8.837-7.163 16-16 16S0 24.837 0 16 7.163 0 16 0s16 7.163 16 16z" style="fill:var(--color2, #54be96)"/>
    </symbol>
    <symbol id="icon-user" viewBox="0 0 32 32">
      <path fill="#fbfbfb" d="M16 5.333a5.332 5.332 0 1 1 0 10.665 5.332 5.332 0 0 1 0-10.665zm0 13.334c5.893 0 10.667 2.387 10.667 5.333v2.667H5.334V24c0-2.947 4.773-5.333 10.667-5.333z" style="fill:var(--color1, #fbfbfb)"/>
    </symbol>
    <symbol id="icon-heart-green" viewBox="0 0 32 32">
      <path fill="#54be96" stroke="#54be96" stroke-linecap="round" stroke-linejoin="round" stroke-width="2.462" d="M27.787 6.147a7.326 7.326 0 0 0-10.373 0L16.001 7.56l-1.413-1.413a7.333 7.333 0 0 0-10.374 0 7.333 7.333 0 0 0 0 10.374l11.787 11.787 11.787-11.787a7.345 7.345 0 0 0 2.15-5.187 7.33 7.33 0 0 0-2.15-5.187z" style="fill:var(--color2, #54be96);stroke:var(--color2, #54be96)"/>
    </symbol>
    <symbol id="icon-heart" viewBox="0 0 32 32">
      <path stroke-linecap="round" stroke-linejoin="round" stroke-width="2.462" d="M27.787 6.147a7.326 7.326 0 0 0-10.373 0L16.001 7.56l-1.413-1.413a7.333 7.333 0 0 0-10.374 0 7.333 7.333 0 0 0 0 10.374l11.787 11.787 11.787-11.787a7.345 7.345 0 0 0 2.15-5.187 7.33 7.33 0 0 0-2.15-5.187z"/>
    </symbol>
    <symbol id="icon-star" viewBox="0 0 32 32">
      <path fill="#ffc531" stroke="#ffc531" stroke-width="2.4" d="M19.6 9.395a2.201 2.201 0 0 0 1.57 1.141l7.6 1.313-5.375 5.535a2.2 2.2 0 0 0-.6 1.846l1.098 7.635-6.922-3.402-.234-.1a2.203 2.203 0 0 0-1.473 0l-.234.1-6.924 3.402 1.1-7.635a2.2 2.2 0 0 0-.6-1.846l-5.377-5.535 7.602-1.313a2.198 2.198 0 0 0 1.57-1.141l3.6-6.822 3.6 6.822z" style="fill:var(--color3, #ffc531);stroke:var(--color3, #ffc531)"/>
    </symbol>
  </defs>
</svg>
